<svg width="39" height="37" viewBox="0 0 39 37" fill="none" xmlns="http://www.w3.org/2000/svg">
<path d="M28.1563 20.2916C29.5625 20.2916 30.8 19.557 31.4375 18.4462L38.15 6.81825C38.8438 5.63575 37.9438 4.16659 36.5188 4.16659H8.76875L7.00625 0.583252H0.875V4.16659H4.625L11.375 17.7653L8.84375 22.137C7.475 24.5378 9.275 27.4583 12.125 27.4583H34.625V23.8749H12.125L14.1875 20.2916H28.1563ZM10.55 7.74992H33.3312L28.1563 16.7083H14.9938L10.55 7.74992ZM12.125 29.2499C10.0625 29.2499 8.39375 30.8624 8.39375 32.8333C8.39375 34.8041 10.0625 36.4166 12.125 36.4166C14.1875 36.4166 15.875 34.8041 15.875 32.8333C15.875 30.8624 14.1875 29.2499 12.125 29.2499ZM30.875 29.2499C28.8125 29.2499 27.1438 30.8624 27.1438 32.8333C27.1438 34.8041 28.8125 36.4166 30.875 36.4166C32.9375 36.4166 34.625 34.8041 34.625 32.8333C34.625 30.8624 32.9375 29.2499 30.875 29.2499Z" fill="#323232"/>
</svg>
