<svg width="35" height="34" viewBox="0 0 35 34" fill="none" xmlns="http://www.w3.org/2000/svg">
<path d="M25.1875 0.375C22.215 0.375 19.3621 1.82625 17.5 4.11958C15.6379 1.82625 12.785 0.375 9.81252 0.375C4.55085 0.375 0.416687 4.71083 0.416687 10.2292C0.416687 17.0017 6.22502 22.52 15.0229 30.905L17.5 33.2521L19.9771 30.8871C28.775 22.52 34.5834 17.0017 34.5834 10.2292C34.5834 4.71083 30.4492 0.375 25.1875 0.375ZM17.6709 28.2354L17.5 28.4146L17.3292 28.2354C9.19752 20.5133 3.83335 15.4071 3.83335 10.2292C3.83335 6.64583 6.39585 3.95833 9.81252 3.95833C12.4434 3.95833 15.0059 5.73208 15.9113 8.18667H19.1059C19.9942 5.73208 22.5567 3.95833 25.1875 3.95833C28.6042 3.95833 31.1667 6.64583 31.1667 10.2292C31.1667 15.4071 25.8025 20.5133 17.6709 28.2354Z" fill="#323232"/>
</svg>
